REM DIRINDEX 1\4,1\2\5,1\2\6,1\3\7,1\3\8
REM DIRNAME cjc124,folder01,folder02,folder03,folder04,folder05,folder06,folder07
TITLE ""
FILE "004_Day02_Check3_Sentences.mp3" MP3
  TRACK 01 AUDIO
    TITLE "0:"
    INDEX 01 00:00:00
  TRACK 02 AUDIO
    TITLE "4:cjc124_0100"
    INDEX 01 00:00:25
  TRACK 03 AUDIO
    TITLE "0:"
    INDEX 01 00:01:56
  TRACK 04 AUDIO
    TITLE "7:cjc124_0101"
    INDEX 01 00:02:22
  TRACK 05 AUDIO
    TITLE "0:"
    INDEX 01 00:03:59
  TRACK 06 AUDIO
    TITLE "8:cjc124_0102"
    INDEX 01 00:04:11
  TRACK 07 AUDIO
    TITLE "0:"
    INDEX 01 00:05:50
  TRACK 08 AUDIO
    TITLE "7:cjc124_0103"
    INDEX 01 00:06:12
  TRACK 09 AUDIO
    TITLE "0:"
    INDEX 01 00:08:05
  TRACK 10 AUDIO
    TITLE "8:cjc124_0104"
    INDEX 01 00:08:23
  TRACK 11 AUDIO
    TITLE "0:"
    INDEX 01 00:10:53
  TRACK 12 AUDIO
    TITLE "7:cjc124_0105"
    INDEX 01 00:11:19
  TRACK 13 AUDIO
    TITLE "0:"
    INDEX 01 00:12:65
  TRACK 14 AUDIO
    TITLE "8:cjc124_0106"
    INDEX 01 00:13:20
  TRACK 15 AUDIO
    TITLE "0:"
    INDEX 01 00:14:72
  TRACK 16 AUDIO
    TITLE "7:cjc124_0107"
    INDEX 01 00:15:34
  TRACK 17 AUDIO
    TITLE "0:"
    INDEX 01 00:17:41
  TRACK 18 AUDIO
    TITLE "8:cjc124_0108"
    INDEX 01 00:17:57
  TRACK 19 AUDIO
    TITLE "0:"
    INDEX 01 00:19:65
  TRACK 20 AUDIO
    TITLE "7:cjc124_0109"
    INDEX 01 00:20:28
  TRACK 21 AUDIO
    TITLE "0:"
    INDEX 01 00:22:74
  TRACK 22 AUDIO
    TITLE "8:cjc124_0110"
    INDEX 01 00:23:16
  TRACK 23 AUDIO
    TITLE "0:"
    INDEX 01 00:25:54
  TRACK 24 AUDIO
    TITLE "7:cjc124_0111"
    INDEX 01 00:26:17
  TRACK 25 AUDIO
    TITLE "0:"
    INDEX 01 00:28:35
  TRACK 26 AUDIO
    TITLE "8:cjc124_0112"
    INDEX 01 00:28:49
  TRACK 27 AUDIO
    TITLE "0:"
    INDEX 01 00:30:71
  TRACK 28 AUDIO
    TITLE "7:cjc124_0113"
    INDEX 01 00:31:37
  TRACK 29 AUDIO
    TITLE "0:"
    INDEX 01 00:33:11
  TRACK 30 AUDIO
    TITLE "8:cjc124_0114"
    INDEX 01 00:33:42
  TRACK 31 AUDIO
    TITLE "0:"
    INDEX 01 00:34:63
  TRACK 32 AUDIO
    TITLE "7:cjc124_0115"
    INDEX 01 00:35:25
  TRACK 33 AUDIO
    TITLE "0:"
    INDEX 01 00:37:30
  TRACK 34 AUDIO
    TITLE "8:cjc124_0116"
    INDEX 01 00:37:46
  TRACK 35 AUDIO
    TITLE "0:"
    INDEX 01 00:40:05
  TRACK 36 AUDIO
    TITLE "7:cjc124_0117"
    INDEX 01 00:40:44
  TRACK 37 AUDIO
    TITLE "0:"
    INDEX 01 00:42:08
  TRACK 38 AUDIO
    TITLE "8:cjc124_0118"
    INDEX 01 00:42:23
  TRACK 39 AUDIO
    TITLE "0:"
    INDEX 01 00:43:60
  TRACK 40 AUDIO
    TITLE "7:cjc124_0119"
    INDEX 01 00:44:22
  TRACK 41 AUDIO
    TITLE "0:"
    INDEX 01 00:46:21
  TRACK 42 AUDIO
    TITLE "8:cjc124_0120"
    INDEX 01 00:46:35
  TRACK 43 AUDIO
    TITLE "0:"
    INDEX 01 00:49:74
  TRACK 44 AUDIO
    TITLE "7:cjc124_0121"
    INDEX 01 00:50:42
  TRACK 45 AUDIO
    TITLE "0:"
    INDEX 01 00:52:71
  TRACK 46 AUDIO
    TITLE "8:cjc124_0122"
    INDEX 01 00:53:09
  TRACK 47 AUDIO
    TITLE "0:"
    INDEX 01 00:55:38
  TRACK 48 AUDIO
    TITLE "7:cjc124_0123"
    INDEX 01 00:56:00
  TRACK 49 AUDIO
    TITLE "0:"
    INDEX 01 00:57:68
  TRACK 50 AUDIO
    TITLE "8:cjc124_0124"
    INDEX 01 00:58:09
  TRACK 51 AUDIO
    TITLE "0:"
    INDEX 01 01:00:29
  TRACK 52 AUDIO
    TITLE "7:cjc124_0125"
    INDEX 01 01:00:68
  TRACK 53 AUDIO
    TITLE "0:"
    INDEX 01 01:02:71
  TRACK 54 AUDIO
    TITLE "8:cjc124_0126"
    INDEX 01 01:03:14
  TRACK 55 AUDIO
    TITLE "0:"
    INDEX 01 01:04:66
  TRACK 56 AUDIO
    TITLE "7:cjc124_0127"
    INDEX 01 01:05:28
  TRACK 57 AUDIO
    TITLE "0:"
    INDEX 01 01:07:29
  TRACK 58 AUDIO
    TITLE "8:cjc124_0128"
    INDEX 01 01:07:45
  TRACK 59 AUDIO
    TITLE "0:"
    INDEX 01 01:09:36
  TRACK 60 AUDIO
    TITLE "7:cjc124_0129"
    INDEX 01 01:10:00
  TRACK 61 AUDIO
    TITLE "0:"
    INDEX 01 01:12:05
  TRACK 62 AUDIO
    TITLE "8:cjc124_0130"
    INDEX 01 01:12:32
  TRACK 63 AUDIO
    TITLE "0:"
    INDEX 01 01:14:27
  TRACK 64 AUDIO
    TITLE "7:cjc124_0131"
    INDEX 01 01:14:65
  TRACK 65 AUDIO
    TITLE "0:"
    INDEX 01 01:17:02
  TRACK 66 AUDIO
    TITLE "8:cjc124_0132"
    INDEX 01 01:17:18
  TRACK 67 AUDIO
    TITLE "0:"
    INDEX 01 01:19:21
